<svg xmlns="http://www.w3.org/2000/svg" xmlns:xlink="http://www.w3.org/1999/xlink" width="1200" zoomAndPan="magnify" viewBox="0 0 900 281.25" height="375" preserveAspectRatio="xMidYMid meet" version="1.0"><defs><g/><clipPath id="808ac99d73"><path d="M 1.195312 0 L 898.800781 0 L 898.800781 280.503906 L 1.195312 280.503906 Z M 1.195312 0 " clip-rule="nonzero"/></clipPath><clipPath id="bb95401829"><path d="M 14.039062 79.425781 L 178.597656 79.425781 L 178.597656 244.738281 L 14.039062 244.738281 Z M 14.039062 79.425781 " clip-rule="nonzero"/></clipPath><clipPath id="608d250033"><path d="M 96.378906 36.09375 L 260.9375 36.09375 L 260.9375 201.40625 L 96.378906 201.40625 Z M 96.378906 36.09375 " clip-rule="nonzero"/></clipPath></defs><g clip-path="url(#808ac99d73)"><path fill="#ffffff" d="M 1.195312 0 L 898.804688 0 L 898.804688 287.980469 L 1.195312 287.980469 Z M 1.195312 0 " fill-opacity="1" fill-rule="nonzero"/><path fill="#ffffff" d="M 1.195312 0 L 898.804688 0 L 898.804688 280.503906 L 1.195312 280.503906 Z M 1.195312 0 " fill-opacity="1" fill-rule="nonzero"/><path fill="#ffffff" d="M 1.195312 0 L 898.804688 0 L 898.804688 280.503906 L 1.195312 280.503906 Z M 1.195312 0 " fill-opacity="1" fill-rule="nonzero"/></g><g fill="#312e81" fill-opacity="1"><g transform="translate(284.28242, 176.243816)"><g><path d="M 66.003906 -75.015625 C 60.707031 -78.964844 53.910156 -81.417969 48.21875 -81.417969 C 37.46875 -81.417969 27.664062 -74.855469 22.921875 -65.371094 L 20.945312 -78.332031 C 20.710938 -79.28125 19.917969 -79.835938 18.972656 -79.835938 L 14.148438 -79.835938 C 12.964844 -79.835938 12.253906 -79.125 12.253906 -77.859375 L 12.253906 -1.738281 C 12.253906 -0.472656 12.882812 0.15625 14.148438 0.15625 L 22.289062 0.15625 C 23.554688 0.15625 24.265625 -0.472656 24.265625 -1.738281 L 24.265625 -47.347656 C 24.265625 -60.152344 33.988281 -70.824219 46.792969 -70.824219 C 50.984375 -70.824219 55.886719 -69.007812 59.835938 -66.003906 C 61.023438 -65.132812 62.128906 -65.210938 62.921875 -66.398438 L 66.554688 -72.167969 C 67.1875 -73.195312 66.871094 -74.300781 66.003906 -75.015625 Z M 66.003906 -75.015625 "/></g></g></g><g fill="#312e81" fill-opacity="1"><g transform="translate(355.172275, 176.243816)"><g><path d="M 47.109375 -81.417969 C 24.425781 -81.417969 6.640625 -63.078125 6.640625 -39.761719 C 6.640625 -16.757812 24.898438 1.738281 48.453125 1.738281 C 58.335938 1.738281 69.875 -2.132812 77.148438 -8.773438 C 78.019531 -9.644531 78.097656 -10.910156 77.386719 -11.777344 L 73.039062 -17.546875 C 72.328125 -18.339844 71.0625 -18.574219 70.113281 -17.785156 C 64.34375 -12.648438 56.121094 -9.800781 48.851562 -9.800781 C 33.199219 -9.800781 20.867188 -20.710938 19.207031 -34.699219 L 80.074219 -34.699219 C 83.710938 -34.699219 86.238281 -38.730469 86.238281 -42.527344 C 86.238281 -64.976562 69.640625 -81.417969 47.109375 -81.417969 Z M 46.792969 -70.035156 C 61.8125 -70.035156 72.878906 -60.152344 74.460938 -45.765625 L 19.285156 -45.765625 C 21.421875 -59.679688 32.804688 -70.035156 46.792969 -70.035156 Z M 46.792969 -70.035156 "/></g></g></g><g fill="#312e81" fill-opacity="1"><g transform="translate(448.032451, 176.243816)"><g><path d="M 52.40625 -81.574219 C 39.761719 -81.574219 28.21875 -74.300781 23.082031 -64.183594 L 20.945312 -78.332031 C 20.710938 -79.28125 19.917969 -79.835938 18.972656 -79.835938 L 14.148438 -79.835938 C 12.964844 -79.835938 12.253906 -79.125 12.253906 -77.859375 L 12.253906 -1.738281 C 12.253906 -0.472656 12.882812 0.15625 14.148438 0.15625 L 22.289062 0.15625 C 23.554688 0.15625 24.265625 -0.472656 24.265625 -1.738281 L 24.265625 -47.585938 C 24.265625 -60.074219 35.414062 -70.507812 49.085938 -70.507812 C 62.523438 -70.507812 71.695312 -61.261719 71.695312 -48.296875 L 71.695312 -1.816406 C 71.695312 -0.710938 72.484375 0.078125 73.671875 0.078125 L 81.8125 0.078125 C 82.996094 0.078125 83.710938 -0.710938 83.710938 -1.816406 L 83.710938 -48.929688 C 83.710938 -68.613281 70.824219 -81.574219 52.40625 -81.574219 Z M 52.40625 -81.574219 "/></g></g></g><g fill="#312e81" fill-opacity="1"><g transform="translate(543.184495, 176.243816)"><g><path d="M 45.765625 -9.722656 C 35.648438 -9.722656 28.296875 -16.285156 28.296875 -26.402344 L 28.296875 -69.640625 L 45.371094 -69.640625 C 46.558594 -69.640625 47.191406 -70.351562 47.191406 -71.457031 L 47.191406 -78.019531 C 47.191406 -79.125 46.480469 -79.757812 45.371094 -79.757812 L 28.21875 -79.757812 L 28.21875 -105.921875 C 28.21875 -107.265625 27.429688 -107.816406 26.085938 -107.5 L 17.785156 -105.683594 C 16.757812 -105.367188 16.285156 -104.578125 16.285156 -103.550781 L 16.285156 -79.757812 L 5.296875 -79.757812 C 4.109375 -79.757812 3.476562 -79.046875 3.476562 -77.859375 L 3.476562 -71.457031 C 3.476562 -70.351562 4.109375 -69.640625 5.296875 -69.640625 L 16.285156 -69.640625 L 16.285156 -26.558594 C 16.285156 -9.089844 28.21875 1.660156 45.609375 1.660156 C 47.269531 1.660156 48.453125 0.710938 48.453125 -0.554688 L 48.453125 -7.589844 C 48.453125 -8.773438 47.347656 -9.722656 45.765625 -9.722656 Z M 45.765625 -9.722656 "/></g></g></g><g fill="#312e81" fill-opacity="1"><g transform="translate(599.84896, 176.243816)"><g><path d="M 55.886719 -81.574219 C 42.449219 -81.574219 30.984375 -75.015625 24.1875 -64.34375 L 24.265625 -122.046875 C 24.265625 -123.230469 23.554688 -123.941406 22.449219 -123.941406 L 14.226562 -123.941406 C 12.964844 -123.941406 12.253906 -123.230469 12.253906 -122.046875 L 12.253906 -1.816406 C 12.253906 -0.632812 12.964844 0.15625 14.148438 0.15625 L 18.972656 0.15625 C 19.917969 0.15625 20.710938 -0.472656 20.945312 -1.34375 L 23.320312 -16.996094 C 29.957031 -5.53125 41.816406 1.582031 55.726562 1.582031 C 78.019531 1.582031 95.25 -16.441406 95.25 -39.839844 C 95.25 -63.710938 78.097656 -81.574219 55.886719 -81.574219 Z M 53.75 -10.195312 C 37.152344 -10.195312 23.871094 -23.320312 23.871094 -39.917969 C 23.871094 -56.753906 37.230469 -69.71875 53.828125 -69.71875 C 70.035156 -69.71875 83.078125 -56.753906 83.078125 -39.917969 C 83.078125 -23.320312 69.957031 -10.195312 53.75 -10.195312 Z M 53.75 -10.195312 "/></g></g></g><g fill="#312e81" fill-opacity="1"><g transform="translate(701.71855, 176.243816)"><g><path d="M 6.640625 -39.839844 C 6.640625 -16.679688 25.136719 1.660156 48.691406 1.660156 C 72.089844 1.660156 90.429688 -16.679688 90.429688 -39.839844 C 90.429688 -63.15625 72.089844 -81.417969 48.691406 -81.417969 C 25.136719 -81.417969 6.640625 -63.15625 6.640625 -39.839844 Z M 18.8125 -39.839844 C 18.8125 -56.832031 31.777344 -69.875 48.613281 -69.875 C 65.371094 -69.875 78.253906 -56.832031 78.253906 -39.839844 C 78.253906 -23.003906 65.371094 -9.878906 48.613281 -9.878906 C 31.777344 -9.878906 18.8125 -23.003906 18.8125 -39.839844 Z M 18.8125 -39.839844 "/></g></g></g><g fill="#312e81" fill-opacity="1"><g transform="translate(798.767314, 176.243816)"><g><path d="M 74.222656 -3.875 L 48.136719 -41.417969 L 72.5625 -76.988281 C 73.671875 -78.570312 73.195312 -79.914062 71.21875 -79.914062 L 62.683594 -79.914062 C 61.578125 -79.914062 60.390625 -79.203125 59.519531 -77.9375 L 40.789062 -49.5625 L 22.054688 -77.9375 C 21.183594 -79.28125 19.917969 -79.914062 18.890625 -79.914062 L 10.355469 -79.914062 C 8.378906 -79.914062 7.824219 -78.648438 9.011719 -76.988281 L 33.355469 -41.417969 L 7.351562 -3.875 C 5.769531 -1.582031 6.480469 0.078125 9.011719 0.078125 L 17.546875 0.078125 C 18.734375 0.078125 19.917969 -0.472656 20.628906 -1.816406 L 40.789062 -33.039062 L 61.101562 -1.660156 C 61.65625 -0.554688 62.839844 0.078125 63.949219 0.078125 L 72.644531 0.078125 C 75.25 0.078125 75.644531 -1.660156 74.222656 -3.875 Z M 74.222656 -3.875 "/></g></g></g><g clip-path="url(#bb95401829)"><path fill="#312e81" d="M 14.25 162.0625 C 14.25 138.828125 14.363281 115.59375 14.183594 92.363281 C 14.128906 85.320312 19.480469 79.453125 27.199219 79.460938 C 72.1875 79.507812 117.175781 79.492188 162.164062 79.503906 C 164.097656 79.503906 166.046875 79.441406 167.953125 79.683594 C 174.902344 80.578125 178.484375 86.464844 178.472656 92.550781 C 178.429688 123.902344 178.457031 155.253906 178.457031 186.601562 C 178.457031 201.425781 178.414062 216.25 178.488281 231.066406 C 178.507812 235.105469 177.375 238.597656 174.519531 241.425781 C 172.234375 243.691406 169.261719 244.40625 166.175781 244.632812 C 164.601562 244.75 163.011719 244.675781 161.429688 244.675781 C 117.496094 244.675781 73.5625 244.671875 29.632812 244.683594 C 26.328125 244.683594 23.097656 244.644531 20.117188 242.816406 C 16.59375 240.65625 14.617188 237.589844 14.328125 233.511719 C 14.144531 230.9375 14.253906 228.339844 14.253906 225.753906 C 14.25 204.527344 14.25 183.296875 14.25 162.0625 Z M 37.933594 162.101562 C 37.929688 162.101562 37.929688 162.101562 37.925781 162.101562 C 37.925781 180.507812 37.925781 198.921875 37.925781 217.328125 C 37.925781 217.917969 37.75 218.605469 37.996094 219.070312 C 38.328125 219.691406 38.910156 220.300781 39.53125 220.609375 C 40.054688 220.871094 40.796875 220.71875 41.4375 220.71875 C 78.039062 220.726562 114.636719 220.730469 151.242188 220.734375 C 151.707031 220.734375 152.179688 220.738281 152.648438 220.714844 C 153.964844 220.640625 154.722656 220.003906 154.714844 218.613281 C 154.710938 218.023438 154.730469 217.4375 154.730469 216.847656 C 154.738281 179.910156 154.742188 142.976562 154.75 106.039062 C 154.75 104.035156 154.296875 103.554688 152.285156 103.480469 C 151.582031 103.453125 150.878906 103.46875 150.175781 103.46875 C 113.925781 103.46875 77.679688 103.472656 41.429688 103.46875 C 38.007812 103.46875 37.929688 103.527344 37.929688 106.871094 C 37.933594 125.28125 37.933594 143.691406 37.933594 162.101562 Z M 37.933594 162.101562 " fill-opacity="1" fill-rule="nonzero"/></g><g clip-path="url(#608d250033)"><path fill="#312e81" d="M 96.589844 118.730469 C 96.589844 95.496094 96.703125 72.261719 96.523438 49.03125 C 96.46875 41.988281 101.820312 36.121094 109.539062 36.128906 C 154.527344 36.175781 199.515625 36.160156 244.503906 36.171875 C 246.4375 36.171875 248.386719 36.109375 250.292969 36.351562 C 257.242188 37.246094 260.824219 43.132812 260.8125 49.222656 C 260.769531 80.570312 260.796875 111.921875 260.796875 143.269531 C 260.796875 158.09375 260.753906 172.917969 260.828125 187.734375 C 260.847656 191.773438 259.714844 195.265625 256.859375 198.09375 C 254.574219 200.359375 251.601562 201.074219 248.515625 201.300781 C 246.941406 201.417969 245.351562 201.34375 243.769531 201.34375 C 199.835938 201.34375 155.902344 201.339844 111.96875 201.351562 C 108.667969 201.351562 105.4375 201.3125 102.457031 199.484375 C 98.933594 197.324219 96.957031 194.257812 96.667969 190.183594 C 96.484375 187.605469 96.59375 185.007812 96.59375 182.421875 C 96.589844 161.195312 96.589844 139.964844 96.589844 118.730469 Z M 120.273438 118.769531 C 120.269531 118.769531 120.269531 118.769531 120.265625 118.769531 C 120.265625 137.175781 120.265625 155.589844 120.265625 173.996094 C 120.265625 174.585938 120.089844 175.273438 120.335938 175.738281 C 120.667969 176.359375 121.246094 176.96875 121.871094 177.277344 C 122.394531 177.539062 123.132812 177.386719 123.777344 177.386719 C 160.378906 177.394531 196.976562 177.398438 233.578125 177.402344 C 234.046875 177.402344 234.519531 177.40625 234.988281 177.382812 C 236.304688 177.308594 237.058594 176.671875 237.054688 175.28125 C 237.050781 174.691406 237.070312 174.105469 237.070312 173.515625 C 237.078125 136.578125 237.082031 99.644531 237.089844 62.707031 C 237.089844 60.703125 236.632812 60.222656 234.625 60.148438 C 233.921875 60.121094 233.21875 60.136719 232.511719 60.136719 C 196.265625 60.136719 160.019531 60.140625 123.769531 60.136719 C 120.347656 60.136719 120.269531 60.195312 120.269531 63.539062 C 120.273438 81.949219 120.273438 100.359375 120.273438 118.769531 Z M 120.273438 118.769531 " fill-opacity="1" fill-rule="nonzero"/></g></svg>